<mxfile host="app.diagrams.net" modified="2024-02-04T01:29:43.192Z" agent="Mozilla/5.0 (Windows NT 10.0; Win64; x64) AppleWebKit/537.36 (KHTML, like Gecko) Chrome/114.0.0.0 Safari/537.36" version="23.1.0" etag="IHFB_TAumLeXPx9nNJX4" type="github">
  <diagram name="第 1 页" id="AqQKAcuXLMTX4xy51Qmt">
    <mxGraphModel>
      <root>
        <mxCell id="0" />
        <mxCell id="1" parent="0" />
      </root>
    </mxGraphModel>
  </diagram>
</mxfile>
